<?xml version="1.0" standalone="no"?>
<!DOCTYPE svg PUBLIC "-//W3C//DTD SVG 20010904//EN"
 "http://www.w3.org/TR/2001/REC-SVG-20010904/DTD/svg10.dtd">
<svg version="1.0" xmlns="http://www.w3.org/2000/svg"
 width="642.000000pt" height="642.000000pt" viewBox="0 0 642.000000 642.000000"
 preserveAspectRatio="xMidYMid meet">
<metadata>
Created by potrace 1.11, written by Peter Selinger 2001-2013
</metadata>
<g transform="translate(0.000000,642.000000) scale(0.100000,-0.100000)"
fill="#000000" stroke="none">
<path d="M4605 5931 c-11 -3 -1002 -6 -2202 -6 -2293 0 -2208 2 -2171 -40 23
-25 33 -40 47 -67 8 -16 18 -28 23 -28 4 0 8 -5 8 -12 0 -6 10 -25 23 -42 12
-17 29 -43 36 -58 8 -16 18 -28 23 -28 5 0 6 -4 3 -10 -3 -5 -2 -10 3 -10 5 0
14 -11 20 -25 7 -14 17 -31 22 -38 6 -7 33 -46 59 -87 27 -41 83 -129 126
-195 42 -66 85 -132 96 -147 10 -15 19 -31 19 -36 0 -5 9 -17 20 -27 11 -10
20 -22 20 -27 0 -5 11 -24 25 -42 14 -18 25 -38 25 -44 0 -7 5 -12 10 -12 6 0
10 -5 10 -10 0 -6 5 -16 10 -23 21 -25 150 -228 150 -236 0 -5 3 -11 8 -13 4
-1 27 -34 52 -73 24 -38 48 -72 52 -75 3 -3 306 -5 673 -5 l666 0 -7 -40 c-3
-22 -7 -48 -7 -57 -1 -10 -4 -18 -7 -18 -5 0 -10 -22 -13 -62 -1 -10 -4 -18
-8 -18 -3 0 -5 -10 -5 -22 1 -13 -1 -28 -6 -34 -4 -6 -10 -26 -12 -45 -3 -19
-5 -34 -6 -34 -3 0 -12 -51 -13 -72 -1 -13 -5 -23 -10 -23 -5 0 -7 -6 -4 -14
3 -8 3 -17 -1 -21 -4 -4 -7 -10 -7 -13 -1 -16 -21 -101 -25 -104 -1 -2 -3 -14
-4 -28 -2 -14 -11 -56 -21 -95 -18 -72 -26 -108 -30 -135 -1 -8 -7 -33 -13
-55 -6 -22 -14 -52 -17 -67 -3 -16 -7 -40 -10 -55 -6 -29 -51 -220 -62 -263
-3 -14 -7 -32 -9 -40 -1 -8 -5 -26 -9 -40 -3 -14 -8 -36 -11 -50 -3 -14 -7
-32 -9 -40 -3 -8 -7 -33 -11 -55 -3 -22 -9 -44 -12 -50 -7 -10 -14 -51 -13
-77 0 -10 -5 -18 -10 -18 -6 0 -9 -6 -6 -12 2 -7 -2 -33 -9 -58 -7 -25 -15
-59 -17 -77 -3 -17 -8 -36 -11 -42 -3 -5 -8 -22 -10 -38 -2 -15 -9 -52 -16
-81 -7 -30 -13 -61 -15 -70 -2 -9 -4 -17 -5 -17 -2 0 -9 -32 -14 -65 -2 -14
-8 -36 -13 -50 -5 -14 -9 -32 -8 -40 1 -8 -4 -21 -9 -29 -6 -8 -10 -16 -8 -18
2 -2 -2 -29 -9 -61 -6 -31 -12 -63 -12 -69 0 -7 -3 -13 -7 -13 -3 0 -6 -8 -7
-17 -2 -42 -8 -73 -13 -73 -5 0 -7 -9 -11 -65 -1 -14 -5 -25 -10 -25 -4 0 -8
-8 -7 -17 0 -10 -3 -29 -6 -43 -3 -14 -9 -41 -13 -60 -10 -48 -10 -50 -13 -52
-1 -2 -4 -12 -6 -23 -10 -62 -17 -93 -30 -123 -8 -21 -9 -30 -2 -26 7 4 8 3 4
-4 -4 -7 -9 -22 -12 -34 -9 -39 -12 -53 -14 -53 -1 0 -8 -29 -13 -62 -1 -10
-6 -24 -10 -30 -5 -7 -6 -13 -3 -13 2 0 0 -15 -5 -32 -6 -18 -12 -46 -14 -63
-2 -16 -16 -77 -30 -135 -15 -58 -29 -118 -31 -135 -3 -16 -10 -40 -16 -52
-10 -19 -8 -26 12 -43 12 -10 31 -22 41 -25 11 -4 19 -11 19 -16 0 -6 5 -7 10
-4 6 3 10 2 10 -3 0 -4 18 -19 41 -33 65 -38 69 -41 161 -102 48 -31 92 -57
98 -57 5 0 10 -3 10 -7 0 -5 23 -21 50 -38 28 -16 93 -58 146 -92 52 -35 97
-63 99 -63 2 0 41 -25 87 -56 45 -31 93 -60 106 -65 12 -5 22 -13 22 -18 0 -5
8 -11 18 -15 24 -8 81 -44 99 -61 8 -8 20 -15 28 -15 7 0 15 -4 17 -8 2 -4 46
-35 98 -67 52 -33 116 -74 142 -92 34 -24 59 -33 87 -33 42 0 46 6 57 67 3 16
8 37 11 48 3 11 7 29 9 40 2 11 33 146 69 300 36 154 67 289 69 300 3 11 5 20
6 20 1 0 3 11 6 25 7 44 26 125 32 134 3 5 7 27 9 48 2 22 7 47 12 56 5 9 11
35 14 57 3 22 8 47 11 55 3 8 8 26 10 40 9 44 15 71 22 93 4 12 8 31 10 42 4
27 10 55 22 99 6 20 8 36 5 36 -3 0 0 7 7 15 7 8 10 15 7 15 -3 0 -1 15 4 33
5 17 11 50 14 72 3 21 9 41 13 45 4 3 8 14 9 25 3 28 10 63 23 110 6 22 13 55
15 73 2 18 7 37 11 44 4 6 9 23 10 37 3 27 11 66 14 66 1 0 3 11 6 25 2 14 7
36 11 50 4 14 8 30 9 35 1 6 3 15 4 20 1 6 3 15 4 20 2 9 28 123 31 135 2 7
17 80 21 102 1 9 8 26 14 38 6 12 10 24 7 26 -3 3 1 24 7 47 7 23 12 49 11 57
0 8 2 17 6 20 4 3 9 21 13 40 3 19 10 53 15 75 10 45 41 182 46 205 1 8 8 35
15 60 12 46 20 83 22 110 0 8 5 21 11 28 5 6 7 12 4 12 -3 0 0 21 8 47 8 25
12 50 9 54 -2 4 0 10 6 14 6 4 8 11 5 16 -4 5 -3 9 2 9 4 0 8 12 9 28 1 28 8
66 18 92 3 8 8 26 10 40 3 14 13 57 22 95 8 39 18 81 20 95 3 14 14 58 24 98
11 41 19 77 18 80 -1 4 4 25 10 47 6 22 14 54 17 70 8 42 13 60 16 60 1 0 3
11 4 25 4 29 9 48 20 73 4 10 5 20 2 23 -3 4 -1 18 5 33 5 14 11 33 13 41 2 8
9 38 15 65 14 58 18 80 25 115 3 14 9 40 14 58 10 34 11 38 11 50 0 4 474 8
1053 8 1041 0 1052 0 1049 19 -2 11 -7 22 -12 25 -4 3 -9 10 -11 15 -13 34
-142 235 -150 235 -6 0 -9 6 -7 12 3 7 -4 21 -14 32 -10 11 -18 26 -18 33 0 7
-4 13 -9 13 -5 0 -13 10 -17 22 -3 12 -11 26 -16 32 -13 16 -98 147 -98 152 0
3 -5 10 -10 17 -21 24 -90 138 -90 147 0 6 -4 10 -8 10 -5 0 -15 12 -23 28 -8
15 -17 32 -22 37 -17 22 -57 86 -57 91 0 3 -5 10 -10 17 -11 12 -106 157 -125
190 -35 60 -179 278 -187 283 -13 8 -134 8 -147 0 -6 -4 -11 -4 -11 1 0 4 -19
7 -42 6 -125 -5 -337 -5 -346 1 -6 3 -13 3 -15 -2 -6 -8 -75 -7 -84 1 -3 3
-15 2 -28 -3 -12 -5 -26 -5 -31 0 -5 4 -18 5 -29 1z"/>
</g>
</svg>
